<svg width="5469" height="3602" viewBox="0 0 5469 3602" fill="none" xmlns="http://www.w3.org/2000/svg">
<path d="M1727.53 1801.5C1727.53 2007.24 1686.68 2192.77 1621.33 2326.3C1555.49 2460.82 1467.38 2538 1374.72 2538C1282.07 2538 1193.96 2460.82 1128.12 2326.3C1062.76 2192.77 1021.91 2007.24 1021.91 1801.5C1021.91 1595.76 1062.76 1410.23 1128.12 1276.7C1193.96 1142.18 1282.07 1065 1374.72 1065C1467.38 1065 1555.49 1142.18 1621.33 1276.7C1686.68 1410.23 1727.53 1595.76 1727.53 1801.5Z" stroke="#0C6DFF" stroke-width="30"/>
<path d="M1551.12 2107.04C1372.95 2209.91 1191.86 2267.3 1043.54 2277.47C894.118 2287.71 783.222 2249.99 736.894 2169.75C690.566 2089.51 713.351 1974.61 796.931 1850.33C879.896 1726.97 1020.14 1598.83 1198.32 1495.96C1376.5 1393.09 1557.59 1335.7 1705.91 1325.53C1855.33 1315.29 1966.22 1353.01 2012.55 1433.25C2058.88 1513.49 2036.09 1628.39 1952.51 1752.67C1869.55 1876.03 1729.3 2004.17 1551.12 2107.04Z" stroke="#0C6DFF" stroke-width="30"/>
<path d="M1551.12 1495.96C1729.3 1598.83 1869.55 1726.97 1952.51 1850.33C2036.09 1974.61 2058.88 2089.51 2012.55 2169.75C1966.22 2249.99 1855.33 2287.71 1705.91 2277.47C1557.59 2267.3 1376.5 2209.91 1198.32 2107.04C1020.14 2004.17 879.896 1876.03 796.931 1752.67C713.351 1628.39 690.566 1513.49 736.894 1433.25C783.221 1353.01 894.118 1315.29 1043.54 1325.53C1191.86 1335.7 1372.95 1393.09 1551.12 1495.96Z" stroke="#0C6DFF" stroke-width="30"/>
<g filter="url(#filter0_d_1_34)">
<circle cx="1553.33" cy="1166.99" r="60.1778" fill="#E3111E"/>
<circle cx="1553.33" cy="1166.99" r="50.1778" stroke="#0C6DFF" stroke-width="20"/>
</g>
<g filter="url(#filter1_d_1_34)">
<circle cx="1782.49" cy="2277.15" r="60.1778" fill="#E3111E"/>
<circle cx="1782.49" cy="2277.15" r="50.1778" stroke="#0C6DFF" stroke-width="20"/>
</g>
<g filter="url(#filter2_d_1_34)">
<circle cx="755.612" cy="1926.19" r="40.4395" fill="#E3111E"/>
<circle cx="755.612" cy="1926.19" r="30.4395" stroke="#0C6DFF" stroke-width="20"/>
</g>
<path d="M1209.93 1910.04V1691.86H1362.06V1734.69H1262.66V1779.43H1354.28V1822.36H1262.66V1867.21H1362.06V1910.04H1209.93Z" fill="#0C6DFF"/>
<path d="M1395.09 1910.04V1691.86H1547.22V1734.69H1447.82V1779.43H1539.44V1822.36H1447.82V1867.21H1547.22V1910.04H1395.09Z" fill="#E3111E"/>
<path d="M2228 1816V1469.5H2462V1535H2306V1603H2444.5V1667H2306V1750.5H2473.5V1816H2228ZM2531.22 1816V1469.5H2765.22V1535H2609.22V1603H2747.72V1667H2609.22V1750.5H2776.72V1816H2531.22ZM2926.45 1469.5C2932.45 1480.5 2939.28 1494.17 2946.95 1510.5C2954.95 1526.5 2963.11 1544 2971.45 1563C2980.11 1581.67 2988.61 1600.83 2996.95 1620.5C3005.28 1640.17 3013.11 1658.67 3020.45 1676C3027.78 1658.67 3035.61 1640.17 3043.95 1620.5C3052.28 1600.83 3060.61 1581.67 3068.95 1563C3077.61 1544 3085.78 1526.5 3093.45 1510.5C3101.45 1494.17 3108.45 1480.5 3114.45 1469.5H3185.45C3188.78 1492.5 3191.78 1518.33 3194.45 1547C3197.45 1575.33 3199.95 1605 3201.95 1636C3204.28 1666.67 3206.28 1697.5 3207.95 1728.5C3209.95 1759.5 3211.61 1788.67 3212.95 1816H3136.95C3135.95 1782.33 3134.61 1745.67 3132.95 1706C3131.28 1666.33 3128.78 1626.33 3125.45 1586C3119.45 1600 3112.78 1615.5 3105.45 1632.5C3098.11 1649.5 3090.78 1666.5 3083.45 1683.5C3076.45 1700.5 3069.61 1716.83 3062.95 1732.5C3056.28 1747.83 3050.61 1761 3045.95 1772H2991.45C2986.78 1761 2981.11 1747.83 2974.45 1732.5C2967.78 1716.83 2960.78 1700.5 2953.45 1683.5C2946.45 1666.5 2939.28 1649.5 2931.95 1632.5C2924.61 1615.5 2917.95 1600 2911.95 1586C2908.61 1626.33 2906.11 1666.33 2904.45 1706C2902.78 1745.67 2901.45 1782.33 2900.45 1816H2824.45C2825.78 1788.67 2827.28 1759.5 2828.95 1728.5C2830.95 1697.5 2832.95 1666.67 2834.95 1636C2837.28 1605 2839.78 1575.33 2842.45 1547C2845.45 1518.33 2848.61 1492.5 2851.95 1469.5H2926.45ZM3515.18 1816C3511.51 1804 3507.34 1791.67 3502.68 1779C3498.34 1766.33 3494.01 1753.67 3489.68 1741H3354.68C3350.34 1753.67 3345.84 1766.33 3341.18 1779C3336.84 1791.67 3332.84 1804 3329.18 1816H3248.18C3261.18 1778.67 3273.51 1744.17 3285.18 1712.5C3296.84 1680.83 3308.18 1651 3319.18 1623C3330.51 1595 3341.51 1568.5 3352.18 1543.5C3363.18 1518.17 3374.51 1493.5 3386.18 1469.5H3460.68C3472.01 1493.5 3483.18 1518.17 3494.18 1543.5C3505.18 1568.5 3516.18 1595 3527.18 1623C3538.51 1651 3550.01 1680.83 3561.68 1712.5C3573.34 1744.17 3585.68 1778.67 3598.68 1816H3515.18ZM3421.68 1548C3420.01 1553 3417.51 1559.83 3414.18 1568.5C3410.84 1577.17 3407.01 1587.17 3402.68 1598.5C3398.34 1609.83 3393.51 1622.33 3388.18 1636C3383.18 1649.67 3378.01 1664 3372.68 1679H3471.18C3465.84 1664 3460.68 1649.67 3455.68 1636C3450.68 1622.33 3445.84 1609.83 3441.18 1598.5C3436.84 1587.17 3433.01 1577.17 3429.68 1568.5C3426.34 1559.83 3423.68 1553 3421.68 1548ZM3788.83 1823C3732.5 1823 3689.5 1807.33 3659.83 1776C3630.5 1744.67 3615.83 1700.17 3615.83 1642.5C3615.83 1613.83 3620.33 1588.33 3629.33 1566C3638.33 1543.33 3650.67 1524.33 3666.33 1509C3682 1493.33 3700.67 1481.5 3722.33 1473.5C3744 1465.5 3767.5 1461.5 3792.83 1461.5C3807.5 1461.5 3820.83 1462.67 3832.83 1465C3844.83 1467 3855.33 1469.5 3864.33 1472.5C3873.33 1475.17 3880.83 1478 3886.83 1481C3892.83 1484 3897.17 1486.33 3899.83 1488L3877.33 1551C3866.67 1545.33 3854.17 1540.5 3839.83 1536.5C3825.83 1532.5 3809.83 1530.5 3791.83 1530.5C3779.83 1530.5 3768 1532.5 3756.33 1536.5C3745 1540.5 3734.83 1547 3725.83 1556C3717.17 1564.67 3710.17 1576 3704.83 1590C3699.5 1604 3696.83 1621 3696.83 1641C3696.83 1657 3698.5 1672 3701.83 1686C3705.5 1699.67 3711.17 1711.5 3718.83 1721.5C3726.83 1731.5 3737.17 1739.5 3749.83 1745.5C3762.5 1751.17 3777.83 1754 3795.83 1754C3807.17 1754 3817.33 1753.33 3826.33 1752C3835.33 1750.67 3843.33 1749.17 3850.33 1747.5C3857.33 1745.5 3863.5 1743.33 3868.83 1741C3874.17 1738.67 3879 1736.5 3883.33 1734.5L3904.83 1797C3893.83 1803.67 3878.33 1809.67 3858.33 1815C3838.33 1820.33 3815.17 1823 3788.83 1823ZM4057.85 1756.5C4068.85 1756.5 4077.85 1755.67 4084.85 1754C4092.18 1752 4098.02 1749.5 4102.35 1746.5C4106.68 1743.17 4109.68 1739.33 4111.35 1735C4113.02 1730.67 4113.85 1725.83 4113.85 1720.5C4113.85 1709.17 4108.52 1699.83 4097.85 1692.5C4087.18 1684.83 4068.85 1676.67 4042.85 1668C4031.52 1664 4020.18 1659.5 4008.85 1654.5C3997.52 1649.17 3987.35 1642.67 3978.35 1635C3969.35 1627 3962.02 1617.5 3956.35 1606.5C3950.68 1595.17 3947.85 1581.5 3947.85 1565.5C3947.85 1549.5 3950.85 1535.17 3956.85 1522.5C3962.85 1509.5 3971.35 1498.5 3982.35 1489.5C3993.35 1480.5 4006.68 1473.67 4022.35 1469C4038.02 1464 4055.68 1461.5 4075.35 1461.5C4098.68 1461.5 4118.85 1464 4135.85 1469C4152.85 1474 4166.85 1479.5 4177.85 1485.5L4155.35 1547C4145.68 1542 4134.85 1537.67 4122.85 1534C4111.18 1530 4097.02 1528 4080.35 1528C4061.68 1528 4048.18 1530.67 4039.85 1536C4031.85 1541 4027.85 1548.83 4027.85 1559.5C4027.85 1565.83 4029.35 1571.17 4032.35 1575.5C4035.35 1579.83 4039.52 1583.83 4044.85 1587.5C4050.52 1590.83 4056.85 1594 4063.85 1597C4071.18 1599.67 4079.18 1602.5 4087.85 1605.5C4105.85 1612.17 4121.52 1618.83 4134.85 1625.5C4148.18 1631.83 4159.18 1639.33 4167.85 1648C4176.85 1656.67 4183.52 1666.83 4187.85 1678.5C4192.18 1690.17 4194.35 1704.33 4194.35 1721C4194.35 1753.33 4183.02 1778.5 4160.35 1796.5C4137.68 1814.17 4103.52 1823 4057.85 1823C4042.52 1823 4028.68 1822 4016.35 1820C4004.02 1818.33 3993.02 1816.17 3983.35 1813.5C3974.02 1810.83 3965.85 1808 3958.85 1805C3952.18 1802 3946.52 1799.17 3941.85 1796.5L3963.85 1734.5C3974.18 1740.17 3986.85 1745.33 4001.85 1750C4017.18 1754.33 4035.85 1756.5 4057.85 1756.5Z" fill="#0C6DFF"/>
<path d="M2264.07 1993H2221.69V1921.61H2264.07V1937.09H2240.98V1948.32H2262.37V1963.8H2240.98V1977.28H2264.07V1993ZM2309.24 1936.7C2315.36 1936.7 2320.16 1939.16 2323.64 1944.07C2327.13 1948.96 2328.87 1956 2328.87 1965.22C2328.87 1971.5 2327.99 1976.79 2326.23 1981.09C2324.47 1985.35 2322.07 1988.57 2319.01 1990.75C2315.98 1992.9 2312.53 1993.98 2308.65 1993.98C2306.05 1993.98 2303.84 1993.65 2302.01 1993C2300.22 1992.35 2298.73 1991.54 2297.52 1990.56C2296.35 1989.58 2295.36 1988.59 2294.54 1987.58H2293.96C2294.12 1988.85 2294.25 1990.22 2294.35 1991.68C2294.48 1993.15 2294.54 1994.86 2294.54 1996.81V2017.02H2275.45V1937.68H2290.98L2293.66 1944.71H2294.54C2295.45 1943.28 2296.56 1941.96 2297.86 1940.75C2299.17 1939.52 2300.74 1938.54 2302.6 1937.82C2304.49 1937.08 2306.7 1936.7 2309.24 1936.7ZM2302.06 1951.69C2300.21 1951.69 2298.74 1952.13 2297.67 1953.01C2296.59 1953.89 2295.81 1955.22 2295.32 1957.01C2294.87 1958.77 2294.61 1960.97 2294.54 1963.61V1965.12C2294.54 1968.05 2294.77 1970.52 2295.23 1972.54C2295.68 1974.53 2296.46 1976.04 2297.57 1977.08C2298.68 1978.09 2300.21 1978.6 2302.16 1978.6C2303.76 1978.6 2305.09 1978.14 2306.16 1977.23C2307.24 1976.32 2308.05 1974.87 2308.61 1972.88C2309.16 1970.9 2309.44 1968.28 2309.44 1965.02C2309.44 1960.17 2308.8 1956.74 2307.53 1954.72C2306.29 1952.7 2304.47 1951.69 2302.06 1951.69ZM2359 1937.68V1993H2339.9V1937.68H2359ZM2349.52 1915.41C2352.26 1915.41 2354.63 1915.98 2356.65 1917.12C2358.7 1918.26 2359.73 1920.52 2359.73 1923.91C2359.73 1927.2 2358.7 1929.43 2356.65 1930.6C2354.63 1931.74 2352.26 1932.31 2349.52 1932.31C2346.72 1932.31 2344.33 1931.74 2342.35 1930.6C2340.39 1929.43 2339.42 1927.2 2339.42 1923.91C2339.42 1920.52 2340.39 1918.26 2342.35 1917.12C2344.33 1915.98 2346.72 1915.41 2349.52 1915.41ZM2397.52 1993.98C2391.92 1993.98 2387.06 1992.98 2382.92 1991C2378.79 1988.98 2375.58 1985.89 2373.3 1981.72C2371.06 1977.52 2369.93 1972.15 2369.93 1965.61C2369.93 1958.9 2371.19 1953.42 2373.69 1949.15C2376.23 1944.89 2379.7 1941.75 2384.09 1939.73C2388.49 1937.71 2393.47 1936.7 2399.04 1936.7C2402.42 1936.7 2405.63 1937.08 2408.65 1937.82C2411.71 1938.57 2414.55 1939.6 2417.15 1940.9L2411.54 1955.01C2409.26 1954 2407.12 1953.21 2405.14 1952.62C2403.19 1952 2401.15 1951.69 2399.04 1951.69C2397.11 1951.69 2395.42 1952.2 2393.96 1953.21C2392.49 1954.21 2391.35 1955.74 2390.54 1957.79C2389.73 1959.81 2389.32 1962.38 2389.32 1965.51C2389.32 1968.7 2389.73 1971.27 2390.54 1973.22C2391.39 1975.18 2392.54 1976.59 2394.01 1977.47C2395.5 1978.35 2397.21 1978.79 2399.13 1978.79C2401.9 1978.79 2404.65 1978.37 2407.38 1977.52C2410.15 1976.64 2412.77 1975.44 2415.25 1973.91V1989.09C2412.97 1990.59 2410.4 1991.78 2407.53 1992.66C2404.67 1993.54 2401.33 1993.98 2397.52 1993.98ZM2495.71 1993H2453.33V1921.61H2495.71V1937.09H2472.62V1948.32H2494.01V1963.8H2472.62V1977.28H2495.71V1993ZM2526.18 1993H2507.09V1917.02H2526.18V1993ZM2564.32 1936.7C2569.69 1936.7 2574.33 1937.65 2578.23 1939.53C2582.14 1941.39 2585.15 1944.19 2587.27 1947.93C2589.38 1951.68 2590.44 1956.36 2590.44 1961.99V1970.49H2556.31C2556.47 1973.39 2557.55 1975.76 2559.53 1977.62C2561.55 1979.47 2564.51 1980.4 2568.42 1980.4C2571.87 1980.4 2575.03 1980.06 2577.89 1979.38C2580.79 1978.69 2583.77 1977.64 2586.83 1976.2V1989.92C2584.16 1991.32 2581.25 1992.35 2578.09 1993C2574.93 1993.65 2570.94 1993.98 2566.12 1993.98C2560.56 1993.98 2555.58 1992.98 2551.18 1991C2546.79 1989.01 2543.32 1985.94 2540.78 1981.77C2538.28 1977.6 2537.02 1972.25 2537.02 1965.71C2537.02 1959.06 2538.16 1953.61 2540.44 1949.35C2542.72 1945.05 2545.91 1941.88 2550.01 1939.83C2554.11 1937.74 2558.88 1936.7 2564.32 1936.7ZM2565 1949.69C2562.76 1949.69 2560.87 1950.41 2559.34 1951.84C2557.84 1953.24 2556.96 1955.45 2556.7 1958.48H2573.11C2573.07 1956.85 2572.75 1955.37 2572.13 1954.04C2571.51 1952.7 2570.6 1951.64 2569.4 1950.86C2568.22 1950.08 2566.76 1949.69 2565 1949.69ZM2626.43 1993.98C2620.83 1993.98 2615.96 1992.98 2611.83 1991C2607.69 1988.98 2604.49 1985.89 2602.21 1981.72C2599.96 1977.52 2598.84 1972.15 2598.84 1965.61C2598.84 1958.9 2600.09 1953.42 2602.6 1949.15C2605.14 1944.89 2608.61 1941.75 2613 1939.73C2617.39 1937.71 2622.38 1936.7 2627.94 1936.7C2631.33 1936.7 2634.53 1937.08 2637.56 1937.82C2640.62 1938.57 2643.45 1939.6 2646.06 1940.9L2640.44 1955.01C2638.16 1954 2636.03 1953.21 2634.04 1952.62C2632.09 1952 2630.06 1951.69 2627.94 1951.69C2626.02 1951.69 2624.33 1952.2 2622.86 1953.21C2621.4 1954.21 2620.26 1955.74 2619.45 1957.79C2618.63 1959.81 2618.22 1962.38 2618.22 1965.51C2618.22 1968.7 2618.63 1971.27 2619.45 1973.22C2620.29 1975.18 2621.45 1976.59 2622.91 1977.47C2624.41 1978.35 2626.12 1978.79 2628.04 1978.79C2630.81 1978.79 2633.56 1978.37 2636.29 1977.52C2639.06 1976.64 2641.68 1975.44 2644.15 1973.91V1989.09C2641.87 1990.59 2639.3 1991.78 2636.44 1992.66C2633.57 1993.54 2630.24 1993.98 2626.43 1993.98ZM2682.24 1978.89C2683.96 1978.89 2685.54 1978.71 2686.97 1978.35C2688.41 1977.99 2689.9 1977.54 2691.47 1976.98V1990.9C2689.38 1991.81 2687.17 1992.54 2684.83 1993.1C2682.51 1993.68 2679.55 1993.98 2675.94 1993.98C2672.36 1993.98 2669.2 1993.42 2666.47 1992.32C2663.73 1991.18 2661.6 1989.22 2660.07 1986.46C2658.57 1983.66 2657.82 1979.77 2657.82 1974.79V1951.98H2651.13V1944.22L2659.63 1938.21L2664.56 1926.59H2677.06V1937.68H2690.64V1951.98H2677.06V1973.52C2677.06 1975.31 2677.52 1976.66 2678.43 1977.57C2679.34 1978.45 2680.61 1978.89 2682.24 1978.89ZM2734.53 1936.7C2735.57 1936.7 2736.67 1936.78 2737.8 1936.95C2738.94 1937.08 2739.79 1937.19 2740.34 1937.29L2738.63 1955.3C2738.02 1955.14 2737.22 1955.01 2736.24 1954.91C2735.27 1954.78 2733.9 1954.72 2732.14 1954.72C2730.94 1954.72 2729.65 1954.83 2728.28 1955.06C2726.92 1955.29 2725.61 1955.78 2724.38 1956.53C2723.17 1957.24 2722.18 1958.35 2721.4 1959.85C2720.62 1961.31 2720.23 1963.3 2720.23 1965.8V1993H2701.13V1937.68H2715.34L2718.32 1946.52H2719.25C2720.26 1944.69 2721.54 1943.05 2723.11 1941.58C2724.7 1940.09 2726.48 1938.9 2728.43 1938.02C2730.42 1937.14 2732.45 1936.7 2734.53 1936.7ZM2800.94 1965.22C2800.94 1969.84 2800.3 1973.94 2799.04 1977.52C2797.77 1981.1 2795.93 1984.11 2793.52 1986.55C2791.11 1989 2788.2 1990.85 2784.78 1992.12C2781.36 1993.36 2777.5 1993.98 2773.21 1993.98C2769.2 1993.98 2765.52 1993.36 2762.17 1992.12C2758.85 1990.85 2755.95 1989 2753.48 1986.55C2751 1984.11 2749.08 1981.1 2747.72 1977.52C2746.38 1973.94 2745.71 1969.84 2745.71 1965.22C2745.71 1959.1 2746.82 1953.92 2749.04 1949.69C2751.28 1945.46 2754.47 1942.24 2758.61 1940.02C2762.77 1937.81 2767.74 1936.7 2773.5 1936.7C2778.8 1936.7 2783.52 1937.81 2787.66 1940.02C2791.79 1942.24 2795.03 1945.46 2797.38 1949.69C2799.75 1953.92 2800.94 1959.1 2800.94 1965.22ZM2765.1 1965.22C2765.1 1968.37 2765.38 1971.04 2765.93 1973.22C2766.48 1975.37 2767.36 1977.02 2768.57 1978.16C2769.8 1979.26 2771.41 1979.82 2773.4 1979.82C2775.39 1979.82 2776.96 1979.26 2778.14 1978.16C2779.31 1977.02 2780.15 1975.37 2780.68 1973.22C2781.23 1971.04 2781.51 1968.37 2781.51 1965.22C2781.51 1962.06 2781.23 1959.42 2780.68 1957.31C2780.15 1955.19 2779.29 1953.6 2778.09 1952.52C2776.92 1951.45 2775.32 1950.91 2773.3 1950.91C2770.41 1950.91 2768.31 1952.11 2767 1954.52C2765.73 1956.93 2765.1 1960.5 2765.1 1965.22ZM2846.5 1936.7C2852.19 1936.7 2856.85 1938.31 2860.46 1941.54C2864.07 1944.76 2865.88 1949.92 2865.88 1957.01V1993H2846.79V1962.82C2846.79 1959.15 2846.25 1956.38 2845.18 1954.52C2844.14 1952.64 2842.44 1951.69 2840.1 1951.69C2836.49 1951.69 2834.06 1953.17 2832.82 1956.13C2831.59 1959.06 2830.97 1963.28 2830.97 1968.78V1993H2811.88V1937.68H2826.28L2828.87 1945H2829.6C2830.77 1943.24 2832.17 1941.75 2833.8 1940.51C2835.43 1939.27 2837.3 1938.33 2839.42 1937.68C2841.53 1937.03 2843.89 1936.7 2846.5 1936.7ZM2937.07 1993L2922.47 1941.58H2922.03C2922.16 1942.92 2922.29 1944.73 2922.42 1947C2922.59 1949.28 2922.73 1951.74 2922.86 1954.38C2922.99 1957.01 2923.06 1959.55 2923.06 1961.99V1993H2905.97V1921.61H2931.65L2946.54 1972.3H2946.94L2961.54 1921.61H2987.27V1993H2969.54V1961.7C2969.54 1959.46 2969.58 1957.05 2969.64 1954.47C2969.74 1951.87 2969.84 1949.43 2969.93 1947.15C2970.06 1944.84 2970.18 1943.02 2970.28 1941.68H2969.84L2955.43 1993H2937.07ZM3028.53 1936.7C3035.53 1936.7 3040.99 1938.44 3044.93 1941.93C3048.87 1945.38 3050.84 1950.31 3050.84 1956.72V1993H3037.61L3033.95 1985.68H3033.56C3031.99 1987.63 3030.38 1989.22 3028.72 1990.46C3027.1 1991.67 3025.22 1992.54 3023.11 1993.1C3020.99 1993.68 3018.4 1993.98 3015.34 1993.98C3012.15 1993.98 3009.29 1993.33 3006.75 1992.02C3004.21 1990.72 3002.21 1988.75 3000.74 1986.12C2999.28 1983.48 2998.55 1980.14 2998.55 1976.11C2998.55 1970.18 3000.6 1965.79 3004.7 1962.92C3008.8 1960.06 3014.74 1958.45 3022.52 1958.09L3031.75 1957.79V1957.01C3031.75 1954.54 3031.13 1952.78 3029.89 1951.74C3028.69 1950.7 3027.06 1950.18 3025.01 1950.18C3022.83 1950.18 3020.39 1950.57 3017.69 1951.35C3015.02 1952.1 3012.33 1953.07 3009.63 1954.28L3004.11 1941.68C3007.3 1940.05 3010.92 1938.82 3014.95 1937.97C3018.99 1937.12 3023.51 1936.7 3028.53 1936.7ZM3031.85 1968.29L3027.45 1968.49C3023.94 1968.62 3021.46 1969.24 3020.03 1970.34C3018.63 1971.42 3017.93 1972.96 3017.93 1974.98C3017.93 1976.87 3018.44 1978.27 3019.45 1979.18C3020.45 1980.06 3021.79 1980.5 3023.45 1980.5C3025.76 1980.5 3027.73 1979.77 3029.36 1978.3C3031.02 1976.84 3031.85 1974.93 3031.85 1972.59V1968.29ZM3097.23 1936.7C3098.27 1936.7 3099.36 1936.78 3100.5 1936.95C3101.64 1937.08 3102.49 1937.19 3103.04 1937.29L3101.33 1955.3C3100.71 1955.14 3099.91 1955.01 3098.94 1954.91C3097.96 1954.78 3096.59 1954.72 3094.84 1954.72C3093.63 1954.72 3092.35 1954.83 3090.98 1955.06C3089.61 1955.29 3088.31 1955.78 3087.07 1956.53C3085.87 1957.24 3084.88 1958.35 3084.09 1959.85C3083.31 1961.31 3082.92 1963.3 3082.92 1965.8V1993H3063.83V1937.68H3078.04L3081.02 1946.52H3081.95C3082.95 1944.69 3084.24 1943.05 3085.8 1941.58C3087.4 1940.09 3089.17 1938.9 3091.12 1938.02C3093.11 1937.14 3095.15 1936.7 3097.23 1936.7ZM3129.99 1917.02V1946.91C3129.99 1949.15 3129.89 1951.66 3129.7 1954.43C3129.54 1957.16 3129.28 1959.65 3128.92 1961.9H3129.31C3130.06 1960.76 3131 1959.32 3132.14 1957.6C3133.28 1955.87 3134.31 1954.44 3135.22 1953.3L3147.62 1937.68H3168.91L3149.72 1961.21L3170.13 1993H3148.3L3136.19 1973.18L3129.99 1977.91V1993H3110.8V1917.02H3129.99ZM3193.91 1993.98C3188.21 1993.98 3183.52 1991.55 3179.85 1986.7C3176.17 1981.85 3174.33 1974.75 3174.33 1965.41C3174.33 1955.97 3176.22 1948.83 3179.99 1943.98C3183.77 1939.13 3188.65 1936.7 3194.64 1936.7C3197.11 1936.7 3199.25 1937.06 3201.04 1937.78C3202.83 1938.49 3204.37 1939.47 3205.68 1940.71C3207.01 1941.91 3208.17 1943.28 3209.14 1944.81H3209.53C3209.31 1943.41 3209.09 1941.49 3208.9 1939.04C3208.7 1936.57 3208.61 1934.16 3208.61 1931.82V1917.02H3227.84V1993H3213.44L3209.34 1986.02H3208.61C3207.73 1987.48 3206.62 1988.82 3205.29 1990.02C3203.98 1991.23 3202.39 1992.19 3200.5 1992.9C3198.64 1993.62 3196.45 1993.98 3193.91 1993.98ZM3201.72 1978.89C3204.78 1978.89 3206.93 1977.93 3208.17 1976.01C3209.44 1974.05 3210.12 1971.09 3210.22 1967.12V1965.61C3210.22 1961.25 3209.6 1957.91 3208.36 1955.6C3207.16 1953.25 3204.88 1952.08 3201.53 1952.08C3199.25 1952.08 3197.36 1953.19 3195.86 1955.4C3194.36 1957.62 3193.62 1961.05 3193.62 1965.71C3193.62 1970.29 3194.36 1973.65 3195.86 1975.76C3197.39 1977.85 3199.34 1978.89 3201.72 1978.89ZM3293.91 1965.22C3293.91 1969.84 3293.27 1973.94 3292 1977.52C3290.73 1981.1 3288.9 1984.11 3286.49 1986.55C3284.08 1989 3281.16 1990.85 3277.75 1992.12C3274.33 1993.36 3270.47 1993.98 3266.17 1993.98C3262.17 1993.98 3258.49 1993.36 3255.14 1992.12C3251.82 1990.85 3248.92 1989 3246.45 1986.55C3243.97 1984.11 3242.05 1981.1 3240.69 1977.52C3239.35 1973.94 3238.68 1969.84 3238.68 1965.22C3238.68 1959.1 3239.79 1953.92 3242 1949.69C3244.25 1945.46 3247.44 1942.24 3251.57 1940.02C3255.74 1937.81 3260.71 1936.7 3266.47 1936.7C3271.77 1936.7 3276.49 1937.81 3280.63 1940.02C3284.76 1942.24 3288 1945.46 3290.34 1949.69C3292.72 1953.92 3293.91 1959.1 3293.91 1965.22ZM3258.07 1965.22C3258.07 1968.37 3258.35 1971.04 3258.9 1973.22C3259.45 1975.37 3260.33 1977.02 3261.54 1978.16C3262.77 1979.26 3264.38 1979.82 3266.37 1979.82C3268.35 1979.82 3269.93 1979.26 3271.11 1978.16C3272.28 1977.02 3273.12 1975.37 3273.64 1973.22C3274.2 1971.04 3274.47 1968.37 3274.47 1965.22C3274.47 1962.06 3274.2 1959.42 3273.64 1957.31C3273.12 1955.19 3272.26 1953.6 3271.06 1952.52C3269.88 1951.45 3268.29 1950.91 3266.27 1950.91C3263.37 1950.91 3261.27 1952.11 3259.97 1954.52C3258.7 1956.93 3258.07 1960.5 3258.07 1965.22ZM3352.45 1993L3346.64 1968.78C3346.35 1967.54 3346.06 1966.14 3345.76 1964.58C3345.47 1962.99 3345.18 1961.39 3344.88 1959.8C3344.62 1958.2 3344.4 1956.74 3344.2 1955.4C3344.01 1954.07 3343.86 1953.03 3343.76 1952.28H3343.47C3343.37 1953.03 3343.21 1954.08 3342.98 1955.45C3342.75 1956.79 3342.49 1958.27 3342.2 1959.89C3341.91 1961.52 3341.58 1963.18 3341.22 1964.88C3340.9 1966.54 3340.57 1968.08 3340.25 1969.51L3334.63 1993H3314.56L3299.47 1937.68H3318.27L3322.77 1958.92C3323.09 1960.48 3323.42 1962.35 3323.74 1964.53C3324.1 1966.68 3324.41 1968.88 3324.67 1971.12C3324.96 1973.34 3325.16 1975.32 3325.26 1977.08H3325.55C3325.61 1975.75 3325.76 1974.22 3325.99 1972.49C3326.25 1970.73 3326.53 1968.99 3326.82 1967.27C3327.14 1965.54 3327.44 1964.03 3327.7 1962.73C3327.96 1961.39 3328.14 1960.48 3328.23 1959.99L3333.36 1937.68H3354.46L3359.14 1960.29C3359.44 1961.55 3359.76 1963.18 3360.12 1965.17C3360.51 1967.12 3360.87 1969.17 3361.19 1971.32C3361.55 1973.44 3361.81 1975.36 3361.97 1977.08H3362.27C3362.4 1975.29 3362.59 1973.26 3362.85 1970.98C3363.11 1968.7 3363.41 1966.49 3363.73 1964.34C3364.09 1962.16 3364.43 1960.35 3364.76 1958.92L3369.64 1937.68H3388.05L3372.86 1993H3352.45ZM3430.48 1936.7C3436.18 1936.7 3440.83 1938.31 3444.45 1941.54C3448.06 1944.76 3449.87 1949.92 3449.87 1957.01V1993H3430.77V1962.82C3430.77 1959.15 3430.24 1956.38 3429.16 1954.52C3428.12 1952.64 3426.43 1951.69 3424.08 1951.69C3420.47 1951.69 3418.05 1953.17 3416.81 1956.13C3415.57 1959.06 3414.95 1963.28 3414.95 1968.78V1993H3395.86V1937.68H3410.27L3412.85 1945H3413.59C3414.76 1943.24 3416.16 1941.75 3417.79 1940.51C3419.41 1939.27 3421.28 1938.33 3423.4 1937.68C3425.52 1937.03 3427.88 1936.7 3430.48 1936.7ZM3521.74 1936.41C3519.46 1936.41 3517.43 1936.9 3515.64 1937.87C3513.85 1938.82 3512.32 1940.2 3511.05 1942.02C3509.78 1943.85 3508.8 1946.08 3508.12 1948.71C3507.47 1951.32 3507.14 1954.28 3507.14 1957.6C3507.14 1962.09 3507.71 1965.87 3508.85 1968.93C3509.99 1971.99 3511.71 1974.3 3514.03 1975.86C3516.37 1977.42 3519.3 1978.21 3522.81 1978.21C3526 1978.21 3529.06 1977.77 3531.99 1976.89C3534.96 1976.01 3537.93 1974.95 3540.93 1973.71V1990.02C3537.77 1991.42 3534.53 1992.43 3531.21 1993.05C3527.93 1993.67 3524.43 1993.98 3520.71 1993.98C3512.97 1993.98 3506.62 1992.45 3501.67 1989.39C3496.76 1986.29 3493.13 1982.01 3490.78 1976.54C3488.47 1971.08 3487.32 1964.73 3487.32 1957.5C3487.32 1952.1 3488.07 1947.15 3489.56 1942.66C3491.09 1938.17 3493.32 1934.28 3496.25 1930.99C3499.18 1927.67 3502.79 1925.11 3507.09 1923.32C3511.42 1921.5 3516.37 1920.59 3521.94 1920.59C3525.39 1920.59 3529.02 1920.99 3532.82 1921.81C3536.67 1922.59 3540.41 1923.86 3544.05 1925.62L3538.15 1940.8C3535.54 1939.57 3532.91 1938.52 3530.24 1937.68C3527.57 1936.83 3524.74 1936.41 3521.74 1936.41ZM3606.6 1965.22C3606.6 1969.84 3605.97 1973.94 3604.7 1977.52C3603.43 1981.1 3601.59 1984.11 3599.18 1986.55C3596.77 1989 3593.86 1990.85 3590.44 1992.12C3587.02 1993.36 3583.17 1993.98 3578.87 1993.98C3574.87 1993.98 3571.19 1993.36 3567.83 1992.12C3564.51 1990.85 3561.62 1989 3559.14 1986.55C3556.67 1984.11 3554.75 1981.1 3553.38 1977.52C3552.05 1973.94 3551.38 1969.84 3551.38 1965.22C3551.38 1959.1 3552.49 1953.92 3554.7 1949.69C3556.95 1945.46 3560.14 1942.24 3564.27 1940.02C3568.44 1937.81 3573.4 1936.7 3579.16 1936.7C3584.47 1936.7 3589.19 1937.81 3593.32 1940.02C3597.46 1942.24 3600.7 1945.46 3603.04 1949.69C3605.42 1953.92 3606.6 1959.1 3606.6 1965.22ZM3570.76 1965.22C3570.76 1968.37 3571.04 1971.04 3571.59 1973.22C3572.15 1975.37 3573.03 1977.02 3574.23 1978.16C3575.47 1979.26 3577.08 1979.82 3579.06 1979.82C3581.05 1979.82 3582.63 1979.26 3583.8 1978.16C3584.97 1977.02 3585.82 1975.37 3586.34 1973.22C3586.89 1971.04 3587.17 1968.37 3587.17 1965.22C3587.17 1962.06 3586.89 1959.42 3586.34 1957.31C3585.82 1955.19 3584.96 1953.6 3583.75 1952.52C3582.58 1951.45 3580.99 1950.91 3578.97 1950.91C3576.07 1950.91 3573.97 1952.11 3572.67 1954.52C3571.4 1956.93 3570.76 1960.5 3570.76 1965.22ZM3634.73 1993.98C3629.03 1993.98 3624.34 1991.55 3620.67 1986.7C3616.99 1981.85 3615.15 1974.75 3615.15 1965.41C3615.15 1955.97 3617.04 1948.83 3620.81 1943.98C3624.59 1939.13 3629.47 1936.7 3635.46 1936.7C3637.93 1936.7 3640.07 1937.06 3641.86 1937.78C3643.65 1938.49 3645.19 1939.47 3646.5 1940.71C3647.83 1941.91 3648.99 1943.28 3649.96 1944.81H3650.35C3650.13 1943.41 3649.91 1941.49 3649.72 1939.04C3649.52 1936.57 3649.43 1934.16 3649.43 1931.82V1917.02H3668.66V1993H3654.26L3650.16 1986.02H3649.43C3648.55 1987.48 3647.44 1988.82 3646.11 1990.02C3644.8 1991.23 3643.21 1992.19 3641.32 1992.9C3639.46 1993.62 3637.27 1993.98 3634.73 1993.98ZM3642.54 1978.89C3645.6 1978.89 3647.75 1977.93 3648.99 1976.01C3650.26 1974.05 3650.94 1971.09 3651.04 1967.12V1965.61C3651.04 1961.25 3650.42 1957.91 3649.18 1955.6C3647.98 1953.25 3645.7 1952.08 3642.35 1952.08C3640.07 1952.08 3638.18 1953.19 3636.68 1955.4C3635.18 1957.62 3634.44 1961.05 3634.44 1965.71C3634.44 1970.29 3635.18 1973.65 3636.68 1975.76C3638.21 1977.85 3640.16 1978.89 3642.54 1978.89ZM3706.8 1936.7C3712.17 1936.7 3716.81 1937.65 3720.71 1939.53C3724.62 1941.39 3727.63 1944.19 3729.75 1947.93C3731.86 1951.68 3732.92 1956.36 3732.92 1961.99V1970.49H3698.79C3698.95 1973.39 3700.03 1975.76 3702.01 1977.62C3704.03 1979.47 3706.99 1980.4 3710.9 1980.4C3714.35 1980.4 3717.51 1980.06 3720.37 1979.38C3723.27 1978.69 3726.25 1977.64 3729.31 1976.2V1989.92C3726.64 1991.32 3723.73 1992.35 3720.57 1993C3717.41 1993.65 3713.42 1993.98 3708.61 1993.98C3703.04 1993.98 3698.06 1992.98 3693.66 1991C3689.27 1989.01 3685.8 1985.94 3683.26 1981.77C3680.76 1977.6 3679.5 1972.25 3679.5 1965.71C3679.5 1959.06 3680.64 1953.61 3682.92 1949.35C3685.2 1945.05 3688.39 1941.88 3692.49 1939.83C3696.59 1937.74 3701.36 1936.7 3706.8 1936.7ZM3707.48 1949.69C3705.24 1949.69 3703.35 1950.41 3701.82 1951.84C3700.32 1953.24 3699.44 1955.45 3699.18 1958.48H3715.59C3715.56 1956.85 3715.23 1955.37 3714.61 1954.04C3713.99 1952.7 3713.08 1951.64 3711.88 1950.86C3710.71 1950.08 3709.24 1949.69 3707.48 1949.69ZM3817.49 1971.32C3817.49 1975.19 3816.52 1978.87 3814.56 1982.36C3812.61 1985.81 3809.57 1988.61 3805.43 1990.75C3801.33 1992.9 3796.02 1993.98 3789.51 1993.98C3786.26 1993.98 3783.39 1993.83 3780.92 1993.54C3778.48 1993.24 3776.2 1992.77 3774.08 1992.12C3771.97 1991.44 3769.77 1990.56 3767.49 1989.48V1972.3C3771.37 1974.25 3775.27 1975.75 3779.21 1976.79C3783.15 1977.8 3786.71 1978.3 3789.9 1978.3C3791.82 1978.3 3793.39 1978.07 3794.59 1977.62C3795.83 1977.16 3796.74 1976.54 3797.33 1975.76C3797.91 1974.95 3798.21 1974.02 3798.21 1972.98C3798.21 1971.74 3797.77 1970.7 3796.89 1969.86C3796.04 1968.98 3794.67 1968.07 3792.79 1967.12C3790.9 1966.18 3788.41 1965.01 3785.31 1963.61C3782.68 1962.37 3780.29 1961.1 3778.14 1959.8C3776.02 1958.49 3774.2 1957.01 3772.67 1955.35C3771.17 1953.66 3770.01 1951.69 3769.2 1949.45C3768.39 1947.2 3767.98 1944.55 3767.98 1941.49C3767.98 1936.9 3769.1 1933.06 3771.35 1929.96C3773.63 1926.84 3776.79 1924.49 3780.82 1922.93C3784.89 1921.37 3789.58 1920.59 3794.88 1920.59C3799.54 1920.59 3803.72 1921.11 3807.43 1922.15C3811.18 1923.19 3814.53 1924.38 3817.49 1925.71L3811.58 1940.61C3808.52 1939.21 3805.51 1938.1 3802.55 1937.29C3799.59 1936.44 3796.84 1936.02 3794.3 1936.02C3792.64 1936.02 3791.27 1936.23 3790.2 1936.65C3789.16 1937.04 3788.37 1937.58 3787.85 1938.26C3787.37 1938.95 3787.12 1939.73 3787.12 1940.61C3787.12 1941.71 3787.54 1942.71 3788.39 1943.59C3789.27 1944.46 3790.72 1945.43 3792.74 1946.47C3794.79 1947.48 3797.57 1948.79 3801.09 1950.42C3804.57 1951.98 3807.53 1953.68 3809.97 1955.5C3812.41 1957.29 3814.27 1959.46 3815.54 1961.99C3816.84 1964.5 3817.49 1967.61 3817.49 1971.32ZM3820.71 1937.68H3840.83L3850.21 1969.42C3850.34 1969.87 3850.47 1970.44 3850.6 1971.12C3850.73 1971.78 3850.84 1972.48 3850.94 1973.22C3851.04 1973.97 3851.1 1974.71 3851.13 1975.42H3851.53C3851.69 1974.09 3851.87 1972.93 3852.06 1971.96C3852.29 1970.95 3852.5 1970.13 3852.7 1969.51L3862.32 1937.68H3881.8L3859.92 1996.52C3858.23 2001.01 3856.26 2004.77 3854.02 2007.79C3851.8 2010.85 3849.05 2013.15 3845.76 2014.68C3842.51 2016.24 3838.46 2017.02 3833.61 2017.02C3831.85 2017.02 3830.33 2016.93 3829.06 2016.73C3827.83 2016.57 3826.74 2016.39 3825.79 2016.19V2001.2C3826.51 2001.33 3827.39 2001.46 3828.43 2001.59C3829.47 2001.72 3830.56 2001.79 3831.7 2001.79C3833.82 2001.79 3835.53 2001.37 3836.83 2000.52C3838.16 1999.67 3839.25 1998.55 3840.1 1997.15C3840.95 1995.78 3841.68 1994.3 3842.3 1992.71L3842.49 1992.22L3820.71 1937.68ZM3929.55 1976.01C3929.55 1979.52 3928.77 1982.63 3927.21 1985.33C3925.65 1988.04 3923.14 1990.15 3919.69 1991.68C3916.27 1993.21 3911.76 1993.98 3906.16 1993.98C3902.23 1993.98 3898.69 1993.76 3895.57 1993.34C3892.48 1992.92 3889.33 1992.1 3886.14 1990.9V1975.62C3889.63 1977.21 3893.18 1978.37 3896.79 1979.08C3900.4 1979.77 3903.25 1980.11 3905.33 1980.11C3907.48 1980.11 3909.04 1979.88 3910.02 1979.43C3911.03 1978.94 3911.54 1978.22 3911.54 1977.28C3911.54 1976.46 3911.19 1975.78 3910.51 1975.23C3909.86 1974.64 3908.67 1973.97 3906.95 1973.22C3905.25 1972.48 3902.86 1971.47 3899.77 1970.2C3896.71 1968.93 3894.15 1967.54 3892.1 1966.05C3890.08 1964.55 3888.57 1962.76 3887.56 1960.68C3886.55 1958.59 3886.05 1956.04 3886.05 1953.01C3886.05 1947.61 3888.13 1943.54 3892.3 1940.8C3896.46 1938.07 3901.98 1936.7 3908.85 1936.7C3912.5 1936.7 3915.93 1937.11 3919.15 1937.92C3922.38 1938.7 3925.71 1939.86 3929.16 1941.39L3923.94 1953.69C3921.2 1952.46 3918.44 1951.46 3915.64 1950.71C3912.84 1949.97 3910.61 1949.59 3908.95 1949.59C3907.45 1949.59 3906.29 1949.79 3905.48 1950.18C3904.67 1950.57 3904.26 1951.14 3904.26 1951.89C3904.26 1952.57 3904.54 1953.17 3905.09 1953.69C3905.68 1954.21 3906.77 1954.82 3908.36 1955.5C3909.96 1956.18 3912.28 1957.14 3915.34 1958.38C3918.57 1959.68 3921.22 1961.08 3923.3 1962.58C3925.42 1964.04 3926.98 1965.84 3927.99 1967.95C3929.03 1970.07 3929.55 1972.75 3929.55 1976.01ZM3967.3 1978.89C3969.02 1978.89 3970.6 1978.71 3972.03 1978.35C3973.47 1977.99 3974.96 1977.54 3976.53 1976.98V1990.9C3974.44 1991.81 3972.23 1992.54 3969.88 1993.1C3967.57 1993.68 3964.61 1993.98 3961 1993.98C3957.42 1993.98 3954.26 1993.42 3951.53 1992.32C3948.79 1991.18 3946.66 1989.22 3945.13 1986.46C3943.63 1983.66 3942.88 1979.77 3942.88 1974.79V1951.98H3936.19V1944.22L3944.69 1938.21L3949.62 1926.59H3962.12V1937.68H3975.7V1951.98H3962.12V1973.52C3962.12 1975.31 3962.58 1976.66 3963.49 1977.57C3964.4 1978.45 3965.67 1978.89 3967.3 1978.89ZM4011.1 1936.7C4016.47 1936.7 4021.11 1937.65 4025.01 1939.53C4028.92 1941.39 4031.93 1944.19 4034.04 1947.93C4036.16 1951.68 4037.22 1956.36 4037.22 1961.99V1970.49H4003.09C4003.25 1973.39 4004.32 1975.76 4006.31 1977.62C4008.33 1979.47 4011.29 1980.4 4015.2 1980.4C4018.65 1980.4 4021.81 1980.06 4024.67 1979.38C4027.57 1978.69 4030.55 1977.64 4033.61 1976.2V1989.92C4030.94 1991.32 4028.02 1992.35 4024.87 1993C4021.71 1993.65 4017.72 1993.98 4012.9 1993.98C4007.34 1993.98 4002.36 1992.98 3997.96 1991C3993.57 1989.01 3990.1 1985.94 3987.56 1981.77C3985.05 1977.6 3983.8 1972.25 3983.8 1965.71C3983.8 1959.06 3984.94 1953.61 3987.22 1949.35C3989.5 1945.05 3992.69 1941.88 3996.79 1939.83C4000.89 1937.74 4005.66 1936.7 4011.1 1936.7ZM4011.78 1949.69C4009.53 1949.69 4007.65 1950.41 4006.12 1951.84C4004.62 1953.24 4003.74 1955.45 4003.48 1958.48H4019.88C4019.85 1956.85 4019.53 1955.37 4018.91 1954.04C4018.29 1952.7 4017.38 1951.64 4016.17 1950.86C4015 1950.08 4013.54 1949.69 4011.78 1949.69ZM4115.54 1936.7C4121.85 1936.7 4126.67 1938.31 4129.99 1941.54C4133.35 1944.76 4135.02 1949.92 4135.02 1957.01V1993H4115.93V1962.92C4115.93 1958.72 4115.36 1955.81 4114.22 1954.18C4113.11 1952.52 4111.45 1951.69 4109.24 1951.69C4106.15 1951.69 4104 1953.04 4102.79 1955.74C4101.62 1958.45 4101.04 1962.27 4101.04 1967.22V1993H4081.9V1962.92C4081.9 1960.25 4081.65 1958.1 4081.16 1956.48C4080.71 1954.82 4080.01 1953.61 4079.06 1952.86C4078.12 1952.08 4076.93 1951.69 4075.5 1951.69C4073.32 1951.69 4071.61 1952.36 4070.37 1953.69C4069.17 1955 4068.32 1956.92 4067.83 1959.46C4067.35 1961.99 4067.1 1965.1 4067.1 1968.78V1993H4048.01V1937.68H4062.41L4065.2 1944.51H4065.73C4066.71 1943.02 4067.96 1941.68 4069.49 1940.51C4071.06 1939.34 4072.9 1938.41 4075.01 1937.73C4077.16 1937.04 4079.6 1936.7 4082.34 1936.7C4086.4 1936.7 4089.76 1937.38 4092.39 1938.75C4095.03 1940.12 4097.18 1942.01 4098.84 1944.42H4099.43C4101.18 1941.94 4103.45 1940.04 4106.21 1938.7C4108.98 1937.37 4112.09 1936.7 4115.54 1936.7Z" fill="#E3111E"/>
<defs>
<filter id="filter0_d_1_34" x="1473.15" y="1086.81" width="160.356" height="160.356" filterUnits="userSpaceOnUse" color-interpolation-filters="sRGB">
<feFlood flood-opacity="0" result="BackgroundImageFix"/>
<feColorMatrix in="SourceAlpha" type="matrix" values="0 0 0 0 0 0 0 0 0 0 0 0 0 0 0 0 0 0 127 0" result="hardAlpha"/>
<feMorphology radius="20" operator="dilate" in="SourceAlpha" result="effect1_dropShadow_1_34"/>
<feOffset/>
<feComposite in2="hardAlpha" operator="out"/>
<feColorMatrix type="matrix" values="0 0 0 0 1 0 0 0 0 1 0 0 0 0 1 0 0 0 1 0"/>
<feBlend mode="normal" in2="BackgroundImageFix" result="effect1_dropShadow_1_34"/>
<feBlend mode="normal" in="SourceGraphic" in2="effect1_dropShadow_1_34" result="shape"/>
</filter>
<filter id="filter1_d_1_34" x="1702.31" y="2196.97" width="160.356" height="160.355" filterUnits="userSpaceOnUse" color-interpolation-filters="sRGB">
<feFlood flood-opacity="0" result="BackgroundImageFix"/>
<feColorMatrix in="SourceAlpha" type="matrix" values="0 0 0 0 0 0 0 0 0 0 0 0 0 0 0 0 0 0 127 0" result="hardAlpha"/>
<feMorphology radius="20" operator="dilate" in="SourceAlpha" result="effect1_dropShadow_1_34"/>
<feOffset/>
<feComposite in2="hardAlpha" operator="out"/>
<feColorMatrix type="matrix" values="0 0 0 0 1 0 0 0 0 1 0 0 0 0 1 0 0 0 1 0"/>
<feBlend mode="normal" in2="BackgroundImageFix" result="effect1_dropShadow_1_34"/>
<feBlend mode="normal" in="SourceGraphic" in2="effect1_dropShadow_1_34" result="shape"/>
</filter>
<filter id="filter2_d_1_34" x="695.173" y="1865.75" width="120.879" height="120.879" filterUnits="userSpaceOnUse" color-interpolation-filters="sRGB">
<feFlood flood-opacity="0" result="BackgroundImageFix"/>
<feColorMatrix in="SourceAlpha" type="matrix" values="0 0 0 0 0 0 0 0 0 0 0 0 0 0 0 0 0 0 127 0" result="hardAlpha"/>
<feMorphology radius="20" operator="dilate" in="SourceAlpha" result="effect1_dropShadow_1_34"/>
<feOffset/>
<feComposite in2="hardAlpha" operator="out"/>
<feColorMatrix type="matrix" values="0 0 0 0 1 0 0 0 0 1 0 0 0 0 1 0 0 0 1 0"/>
<feBlend mode="normal" in2="BackgroundImageFix" result="effect1_dropShadow_1_34"/>
<feBlend mode="normal" in="SourceGraphic" in2="effect1_dropShadow_1_34" result="shape"/>
</filter>
</defs>
</svg>
