<svg width="2975" height="2679" viewBox="0 0 2975 2679" fill="none" xmlns="http://www.w3.org/2000/svg">
<path d="M2127.89 1339.17C2127.89 1707.19 2054.85 2039.63 1937.45 2279.51C1819.56 2520.38 1659.55 2663.33 1487.47 2663.33C1315.39 2663.33 1155.37 2520.38 1037.48 2279.51C920.078 2039.63 847.038 1707.19 847.038 1339.17C847.038 971.146 920.078 638.705 1037.48 398.827C1155.37 157.958 1315.39 15 1487.47 15C1659.55 15 1819.56 157.958 1937.45 398.827C2054.85 638.705 2127.89 971.146 2127.89 1339.17Z" stroke="#0C6DFF" stroke-width="30"/>
<path d="M1807.68 1893.79C1488.97 2077.8 1164.54 2180.77 898.101 2199.03C630.558 2217.37 426.745 2150.28 340.704 2001.25C254.664 1852.22 298.461 1642.17 448.116 1419.64C597.155 1198.02 848.537 968.55 1167.25 784.54C1485.97 600.529 1810.39 497.563 2076.83 479.299C2344.38 460.958 2548.19 528.058 2634.23 677.083C2720.27 826.109 2676.47 1036.17 2526.82 1258.7C2377.78 1480.31 2126.4 1709.78 1807.68 1893.79Z" stroke="#0C6DFF" stroke-width="30"/>
<path d="M1807.68 784.54C2126.4 968.55 2377.78 1198.02 2526.82 1419.64C2676.47 1642.17 2720.27 1852.22 2634.23 2001.25C2548.19 2150.28 2344.38 2217.37 2076.83 2199.03C1810.39 2180.77 1485.97 2077.8 1167.25 1893.79C848.537 1709.78 597.155 1480.31 448.116 1258.69C298.461 1036.17 254.664 826.109 340.704 677.083C426.745 528.058 630.558 460.958 898.101 479.299C1164.54 497.563 1488.97 600.529 1807.68 784.54Z" stroke="#0C6DFF" stroke-width="30"/>
<g filter="url(#filter0_d_1_20)">
<circle cx="1805.74" cy="208.467" r="107.236" fill="#E3111E"/>
<circle cx="1805.74" cy="208.467" r="97.2363" stroke="#0C6DFF" stroke-width="20"/>
</g>
<g filter="url(#filter1_d_1_20)">
<circle cx="2214.1" cy="2186.76" r="107.236" fill="#E3111E"/>
<circle cx="2214.1" cy="2186.76" r="97.2363" stroke="#0C6DFF" stroke-width="20"/>
</g>
<g filter="url(#filter2_d_1_20)">
<circle cx="384.22" cy="1561.36" r="72.0628" fill="#E3111E"/>
<circle cx="384.22" cy="1561.36" r="62.0628" stroke="#0C6DFF" stroke-width="20"/>
</g>
<path d="M1325.69 1305.03V1086.84H1477.82V1129.67H1378.42V1174.42H1470.04V1217.35H1378.42V1262.2H1477.82V1305.03H1325.69Z" fill="#0C6DFF"/>
<path d="M1510.84 1305.03V1086.84H1662.97V1129.67H1563.58V1174.42H1655.2V1217.35H1563.58V1262.2H1662.97V1305.03H1510.84Z" fill="#E3111E"/>
<defs>
<filter id="filter0_d_1_20" x="1678.51" y="81.2311" width="254.473" height="254.473" filterUnits="userSpaceOnUse" color-interpolation-filters="sRGB">
<feFlood flood-opacity="0" result="BackgroundImageFix"/>
<feColorMatrix in="SourceAlpha" type="matrix" values="0 0 0 0 0 0 0 0 0 0 0 0 0 0 0 0 0 0 127 0" result="hardAlpha"/>
<feMorphology radius="20" operator="dilate" in="SourceAlpha" result="effect1_dropShadow_1_20"/>
<feOffset/>
<feComposite in2="hardAlpha" operator="out"/>
<feColorMatrix type="matrix" values="0 0 0 0 1 0 0 0 0 1 0 0 0 0 1 0 0 0 1 0"/>
<feBlend mode="normal" in2="BackgroundImageFix" result="effect1_dropShadow_1_20"/>
<feBlend mode="normal" in="SourceGraphic" in2="effect1_dropShadow_1_20" result="shape"/>
</filter>
<filter id="filter1_d_1_20" x="2086.86" y="2059.53" width="254.473" height="254.473" filterUnits="userSpaceOnUse" color-interpolation-filters="sRGB">
<feFlood flood-opacity="0" result="BackgroundImageFix"/>
<feColorMatrix in="SourceAlpha" type="matrix" values="0 0 0 0 0 0 0 0 0 0 0 0 0 0 0 0 0 0 127 0" result="hardAlpha"/>
<feMorphology radius="20" operator="dilate" in="SourceAlpha" result="effect1_dropShadow_1_20"/>
<feOffset/>
<feComposite in2="hardAlpha" operator="out"/>
<feColorMatrix type="matrix" values="0 0 0 0 1 0 0 0 0 1 0 0 0 0 1 0 0 0 1 0"/>
<feBlend mode="normal" in2="BackgroundImageFix" result="effect1_dropShadow_1_20"/>
<feBlend mode="normal" in="SourceGraphic" in2="effect1_dropShadow_1_20" result="shape"/>
</filter>
<filter id="filter2_d_1_20" x="292.157" y="1469.3" width="184.126" height="184.125" filterUnits="userSpaceOnUse" color-interpolation-filters="sRGB">
<feFlood flood-opacity="0" result="BackgroundImageFix"/>
<feColorMatrix in="SourceAlpha" type="matrix" values="0 0 0 0 0 0 0 0 0 0 0 0 0 0 0 0 0 0 127 0" result="hardAlpha"/>
<feMorphology radius="20" operator="dilate" in="SourceAlpha" result="effect1_dropShadow_1_20"/>
<feOffset/>
<feComposite in2="hardAlpha" operator="out"/>
<feColorMatrix type="matrix" values="0 0 0 0 1 0 0 0 0 1 0 0 0 0 1 0 0 0 1 0"/>
<feBlend mode="normal" in2="BackgroundImageFix" result="effect1_dropShadow_1_20"/>
<feBlend mode="normal" in="SourceGraphic" in2="effect1_dropShadow_1_20" result="shape"/>
</filter>
</defs>
</svg>
